PathFileType	3	(X/Y/Z)	C:\Users\koon_\Desktop\
DataRate	CameraRate	NumFrames	NumMarkers	Units	OrigDataRate	OrigDataStartFrame	OrigNumFrames
100.0	100.0	11	27	mm	100.0	1540	2463	
Frame#	Time	get:LFHD			get:RFHD			get:LBHD			get:RBHD			get:C7			get:T10			get:CLAV			get:STRN			get:RBAK			get:LSHO			get:LUPA			get:LELB			get:LFRA			get:LWRA			get:LWRB			get:LFIN			get:RSHO			get:RUPA			get:RELB			get:RFRA			get:RWRA			get:RWRB			get:RFIN			get:LASI			get:RASI			get:LPSI			get:RPSI			
		X1	Y1	Z1	X2	Y2	Z2	X3	Y3	Z3	X4	Y4	Z4	X5	Y5	Z5	X6	Y6	Z6	X7	Y7	Z7	X8	Y8	Z8	X9	Y9	Z9	X10	Y10	Z10	X11	Y11	Z11	X12	Y12	Z12	X13	Y13	Z13	X14	Y14	Z14	X15	Y15	Z15	X16	Y16	Z16	X17	Y17	Z17	X18	Y18	Z18	X19	Y19	Z19	X20	Y20	Z20	X21	Y21	Z21	X22	Y22	Z22	X23	Y23	Z23	X24	Y24	Z24	X25	Y25	Z25	X26	Y26	Z26	X27	Y27	Z27	
1540	15.39	108.18265	1674.9475	-192.86496	-32.489464	1672.4921	-196.72235	89.864815	1649.8605	-351.68823	-40.272064	1623.9359	-355.55374	53.032539	1449.6747	-366.44202	36.043312	1238.0823	-384.48871	42.458324	1396.9622	-162.7506	51.062672	1202.332	-112.76714	-23.716009	1368.7231	-388.17917	172.37476	1460.0553	-282.39722	305.27618	1374.7269	-278.94324	436.38907	1279.2142	-306.95901	499.35327	1361.8484	-210.97333	537.6015	1388.6454	-140.63815	592.62164	1353.7748	-200.61836	596.84186	1447.8589	-180.78387	-72.888542	1454.7063	-284.59467	-258.91107	1328.5941	-312.39725	-311.78711	1257.6986	-387.16739	-321.58252	1324.5804	-325.05533	-424.31918	1398.0886	-259.79776	-473.27328	1371.0183	-319.96469	-450.1882	1457.7357	-309.89319	177.10527	1007.3134	-170.21629	-85.776642	993.75562	-143.16138	64.280945	1059.0579	-376.54861	-24.693314	1055.4728	-370.39056
1541	15.4	108.1101	1659.0573	-192.81781	-32.594784	1656.4843	-196.97624	90.063339	1634.2783	-351.72134	-40.037819	1608.1627	-355.6228	53.766693	1434.38	-367.2149	36.071625	1222.5774	-386.14447	42.724834	1380.5316	-163.76657	51.265911	1185.9462	-114.34699	-22.829035	1353.9274	-389.50171	172.43987	1444.4352	-283.03564	305.25555	1358.6814	-281.38498	434.31464	1265.5767	-312.56113	490.83774	1351.3267	-215.71774	527.43585	1380.0244	-145.37152	584.53137	1349.6783	-205.84616	581.33606	1443.2518	-185.07625	-72.694023	1439.2185	-285.6521	-257.49603	1310.9147	-315.42667	-308.6283	1240.3096	-390.60693	-316.06564	1307.0779	-328.68799	-416.29373	1383.2881	-262.65634	-466.34369	1357.4248	-322.3045	-439.27405	1443.0682	-313.04257	177.31226	991.39856	-172.53975	-85.564072	977.96503	-144.66548	64.180237	1041.8854	-378.60532	-24.89818	1038.424	-372.05032
1542	15.41	108.08301	1642.1981	-192.87321	-32.593601	1639.5073	-197.11893	90.243156	1617.5605	-351.80728	-39.832893	1591.3982	-355.99774	54.668228	1418.2146	-368.36606	36.04879	1206.1841	-387.7612	43.058105	1363.2661	-164.62054	51.521065	1168.6724	-115.73632	-21.781925	1338.392	-391.0549	172.39545	1428.0024	-283.83124	305.10532	1341.8364	-283.95618	432.11084	1250.9624	-317.94669	482.16174	1338.9409	-219.43718	517.25665	1369.3148	-149.70674	575.87561	1343.7274	-210.87506	565.63531	1436.4753	-189.64696	-72.58577	1423.0162	-286.92154	-255.98827	1292.3295	-318.16931	-305.1106	1221.7708	-393.55441	-310.76147	1288.4308	-331.87323	-408.64059	1366.9293	-265.25473	-459.53885	1342.3865	-324.75473	-429.48392	1427.0416	-315.55963	177.69666	974.59497	-175.1996	-85.19014	961.23468	-146.00578	64.041969	1023.8575	-380.79794	-25.028587	1020.5811	-373.61938
1543	15.42	108.2255	1624.422	-193.15443	-32.523109	1621.7141	-197.31129	90.270233	1599.6176	-351.96771	-39.765697	1573.4636	-356.15875	55.33482	1400.4136	-368.86826	35.953873	1188.799	-389.25574	43.375206	1345.3943	-165.16843	51.917542	1150.601	-117.03846	-20.624586	1321.9559	-392.50644	172.25221	1410.6978	-284.77405	304.90164	1324.3298	-286.63739	429.82297	1235.3965	-323.01346	473.76749	1325.0989	-223.84698	507.34097	1356.6542	-153.69897	566.82861	1335.9058	-215.68179	549.69177	1427.3878	-194.04871	-72.676346	1406.1805	-288.15298	-254.2951	1272.9043	-320.58075	-301.27823	1202.4242	-396.24567	-305.51724	1268.7739	-334.60147	-401.51035	1349.2061	-267.53064	-452.90637	1325.9896	-327.14017	-420.87091	1409.869	-317.54492	178.22289	957.00226	-178.03151	-84.929962	943.63861	-147.51953	63.91795	1005.1602	-383.4071	-25.207319	1002.0658	-375.39047
1544	15.43	108.58811	1606.6086	-193.27629	-32.562397	1603.9178	-197.29167	90.225967	1580.7552	-352.26114	-39.8554	1554.5703	-356.0708	55.871193	1382.0344	-369.93927	35.75301	1170.4451	-390.75174	43.844589	1326.8605	-165.87814	52.360645	1131.6655	-118.09396	-19.426527	1304.8975	-393.94955	172.28256	1393.0437	-286.02325	304.68658	1306.2063	-289.60965	427.63559	1218.8231	-327.72327	465.69193	1309.6791	-227.88336	497.84744	1342.422	-157.46452	557.84503	1326.1265	-220.30693	534.00244	1415.8776	-198.2058	-73.355385	1388.7778	-289.05228	-252.46576	1252.7382	-322.77377	-297.23764	1182.2258	-398.45541	-300.36685	1248.3219	-336.80624	-394.93994	1330.2539	-269.37695	-446.53683	1308.199	-329.31311	-412.58472	1391.5195	-319.10269	178.99271	938.69238	-181.08829	-84.774139	925.45911	-149.04301	63.938908	986.05469	-386.33557	-25.694479	983.51178	-377.85504
1545	15.44	108.9609	1591.0211	-193.44572	-32.64304	1588.7124	-197.33269	90.09005	1562.0845	-352.66855	-40.022243	1535.8331	-355.69284	55.97113	1362.8397	-370.22232	35.667965	1151.7177	-391.79092	44.463253	1308.0691	-166.38684	53.029766	1112.0264	-119.32981	-18.283997	1287.442	-394.88135	173.42696	1376.275	-287.66714	304.56311	1287.5675	-292.6304	425.53162	1201.5193	-332.13766	458.07599	1292.9066	-231.5336	489.11972	1326.4944	-161.13985	548.84094	1314.3527	-224.51884	518.92285	1402.126	-202.30333	-74.786484	1372.0748	-289.9812	-250.47018	1231.8853	-324.6088	-292.96295	1161.9795	-400.97318	-295.19574	1227.3016	-338.51855	-389.07104	1310.1962	-270.97375	-440.5726	1289.0344	-331.22885	-405.93924	1371.8265	-320.38547	180.00775	919.97546	-184.36449	-84.711075	907.10193	-150.78297	63.810005	966.39624	-389.8902	-26.217873	964.185	-381.02762
1546	15.45	108.92888	1578.2272	-194.52194	-32.351574	1576.1145	-197.89941	89.526001	1546.5941	-353.03296	-40.131535	1519.3936	-354.8446	55.671295	1344.1653	-369.45224	35.791111	1133.3925	-392.71851	45.071945	1289.8135	-165.98111	53.79705	1092.3438	-120.7564	-17.552971	1270.2876	-394.86945	175.15352	1360.5851	-289.59869	304.59134	1268.5891	-295.69727	423.1792	1184.0265	-336.12228	451.23428	1275.1256	-234.89894	481.66299	1308.8801	-164.33423	541.04047	1300.7727	-228.97365	504.71353	1385.755	-206.19377	-76.714409	1356.5886	-291.06171	-248.13736	1210.5531	-326.16998	-288.08246	1142.1938	-403.47995	-289.94016	1206.1345	-339.64383	-384.0795	1289.177	-271.97516	-435.27557	1268.5443	-332.8165	-399.66382	1350.7023	-321.45575	181.06047	901.68622	-187.91429	-84.764076	889.37811	-153.16873	63.680561	945.95209	-393.98395	-26.986576	944.42621	-384.73373
1547	15.46	108.72038	1566.0736	-195.16502	-32.371288	1563.1744	-198.17619	88.980179	1535.0243	-353.75064	-40.376011	1506.5026	-354.47665	54.673737	1327.8915	-367.66333	36.451931	1116.8533	-393.74606	45.674839	1272.3925	-166.03801	54.790939	1073.0778	-122.46708	-18.112268	1253.8633	-393.44034	176.75261	1346.321	-291.94751	304.64612	1250.1161	-298.94247	420.07474	1166.5292	-339.66669	445.19293	1256.6593	-237.39038	475.47601	1289.877	-166.92632	533.48694	1285.0977	-232.66162	491.56296	1366.879	-208.47847	-78.720634	1341.052	-291.56122	-244.79671	1189.3284	-327.90076	-282.33075	1123.1648	-405.64087	-284.64572	1185.3419	-340.10834	-380.07846	1267.2816	-272.57532	-430.66208	1247.0345	-333.97879	-394.8952	1328.3556	-322.14606	182.70963	885.00885	-191.61455	-85.064056	873.35858	-155.96587	62.96949	925.771	-398.70169	-27.527445	925.18774	-388.75629
1548	15.47	108.54549	1553.4207	-195.41684	-32.674553	1549.4429	-198.01144	88.656143	1523.679	-354.15796	-40.872864	1494.9811	-355.16473	51.713242	1314.3947	-366.63797	37.300598	1103.0117	-394.92734	46.592632	1255.8184	-165.86574	55.90794	1055.2546	-123.67168	-19.823896	1239.2228	-391.93018	177.70932	1333.002	-293.81818	303.87991	1233.1655	-302.98123	415.84488	1148.7499	-342.5441	439.69873	1237.6357	-238.83533	470.54449	1269.7023	-168.61745	526.76929	1267.7496	-235.95808	480.33398	1346.0967	-211.51003	-80.243073	1326.8201	-290.67313	-240.77963	1169.356	-328.62219	-275.58325	1104.7985	-406.96085	-279.4801	1165.3865	-339.80194	-376.92322	1244.6692	-272.79193	-426.7793	1224.3712	-334.72546	-391.60022	1305.2823	-322.45264	184.56979	871.09705	-194.9828	-84.900574	859.82281	-158.46597	61.917225	909.75214	-403.46722	-28.545816	909.38666	-392.83707
1549	15.48	108.5746	1541.0063	-195.54109	-32.72031	1536.7488	-198.04826	88.462013	1512.6044	-354.60083	-41.129837	1483.9993	-355.84705	49.199223	1303.3903	-366.47968	36.846294	1091.587	-396.57156	47.466442	1240.9966	-164.17194	57.514614	1039.7549	-123.96661	-21.054106	1228.0801	-392.72656	177.62953	1320.9308	-295.26288	302.03824	1217.9725	-307.703	410.55975	1130.866	-345.04623	434.46689	1217.5575	-239.10135	466.08856	1248.609	-169.57742	520.67584	1248.3501	-238.48315	470.71866	1323.8378	-213.99454	-81.261223	1313.8541	-289.93155	-236.71259	1151.889	-329.07071	-268.69031	1087.0929	-407.88693	-274.89886	1146.429	-339.57458	-374.45844	1221.5223	-272.68298	-423.45081	1200.7281	-334.99957	-390.16681	1281.7087	-322.52679	185.86215	859.79578	-197.79619	-84.222771	848.15393	-160.87471	60.790379	899.86237	-406.51285	-29.724316	899.07062	-396.08151
1550	15.49	108.85882	1530.549	-195.94296	-32.761017	1526.6572	-198.28665	88.395355	1502.8405	-355.10574	-41.129539	1474.131	-356.41974	48.729504	1294.7722	-367.74438	35.686211	1082.6025	-398.79797	48.520557	1227.9434	-165.59198	59.273376	1027.6287	-123.66014	-22.409353	1218.819	-394.07584	177.70967	1310.8951	-296.4295	299.53668	1204.1768	-311.99426	404.55646	1113.0154	-347.28281	429.61243	1196.7281	-239.13025	462.30585	1226.6904	-169.8903	515.37976	1227.0096	-240.0654	463.71069	1300.4209	-215.99809	-82.605873	1302.6608	-289.11432	-233.62663	1136.7415	-329.82718	-262.21341	1069.8508	-408.81137	-271.10071	1128.5375	-340.05487	-372.84424	1198.188	-272.41061	-420.91617	1176.1913	-334.82162	-390.12726	1257.7291	-322.20084	186.47029	850.96619	-200.3231	-83.381058	838.77148	-163.14661	61.181335	892.85443	-409.35703	-30.215967	892.16486	-399.23151
